<svg xmlns="http://www.w3.org/2000/svg" version="1.1" xmlns:xlink="http://www.w3.org/1999/xlink" width="1500" height="519" viewBox="0 0 1500 519"><svg xml:space="preserve" width="1500" height="519" data-version="2" data-id="lg_cHZEhUxiDteEDQdkNk" viewBox="0 0 632 519" x="0" y="0"><rect width="100%" height="100%" fill="transparent"></rect><path fill="#e03e0b" d="M452.732 350.198c7.243-2.283 17.826-2.529 25.167-2.529 4.482 0 9.116.11 13.615.203 4.42.11 9 .22 13.358.22 31.134 0 60.444-13.178 82.512-37.143 20.637-22.362 32.466-52.348 32.466-82.236 0-31.385-12.172-59.726-34.32-79.799-20.803-18.87-49.463-29.268-80.665-29.268-11.331 0-20.864 1.676-28.8 3.653a3171.097 3171.097 0 0 0 .079-23.412c0-21.515-13.683-51.692-78.91-73.25-42.084-13.91-97.55-21.564-156.154-21.564-58.61 0-114.07 7.66-156.16 21.564C19.698 48.19 6.01 78.365 6.01 99.887c0 91.738 3.186 164.662 18.704 222.333 15.082 55.963 41.415 98.785 88.073 143.135 29.189 27.751 73.55 42.435 128.28 42.435 54.75 0 99.111-14.69 128.293-42.435 35.523-33.768 59.537-68.24 77.841-111.75.258-.565.829-1.927 5.531-3.407m-29.102-6.5c-16.175 38.475-37.647 70.58-71.887 103.137-23.927 22.75-61.593 35.376-110.663 35.376-49.076 0-86.754-12.64-110.675-35.376-84.2-80.087-98.816-154.338-98.816-346.942 0-38.236 93.788-69.229 209.485-69.229 115.696 0 209.485 30.993 209.485 69.229 0 19.416-.141 37.591-.497 54.736 1.24.178 2.48.27 3.732.27 13.191 0 26.954-9.674 51.065-9.674 24.842 0 47.395 8.047 63.49 22.632 16.715 15.162 25.922 36.77 25.922 60.856 0 23.535-9.367 47.192-25.701 64.902-17.182 18.63-39.802 28.9-63.71 28.9-8.337 0-17.66-.443-26.973-.443-23.154 0-46.296 2.713-54.257 21.626"></path><path fill="#e03e0b" d="M504.872 287.47c29.353-2.959 54.355-27.45 54.355-58.75 0-29.428-21.337-48.445-54.355-48.445-27.335 0-47.18 14.002-57.1 32.165-1.019 16.052-8.047 65.147-9.784 79.174 7.206-4.267 17.224-5.408 27.635-5.408 11.963 0 24.449 1.503 33.76 1.503 1.984.007 3.831-.06 5.489-.239m-32.123-66.7c4.678-6.28 14.334-14.91 32.116-14.91 13.137 0 28.79 3.965 28.79 22.866 0 18.85-15.948 31.747-31.355 33.3a30.256 30.256 0 0 1-2.922.105c-3.536 0-8.195-.307-13.13-.632-5.63-.363-11.921-.78-18.342-.866 1.922-14.42 3.837-29.52 4.843-39.863M391.305 79.771a6.415 6.415 0 0 0-8.673 2.603 6.408 6.408 0 0 0 2.608 8.667c8.52 4.592 13.407 9.527 13.407 13.53 0 3.566-3.96 8.532-13.769 13.73-23.639-17.315-79.112-29.494-143.798-29.494-64.699 0-120.165 12.172-143.804 29.495-9.803-5.2-13.756-10.16-13.756-13.732 0-4.02 4.904-8.962 13.455-13.56 3.112-1.669 4.272-5.549 2.609-8.667a6.42 6.42 0 0 0-8.674-2.603c-13.4 7.2-20.189 15.55-20.189 24.818 0 20.14 32.441 34.369 77.11 42.337-5.812 6.776-8.667 17.242-8.667 31.889v63.483a14.511 14.511 0 0 0-3.855 2.738l-28.328 28.322c-5.636 5.654-10.264 16.789-10.264 24.769v46.443a14.56 14.56 0 0 0 14.511 14.511h68.664a14.56 14.56 0 0 0 14.505-14.511v-46.443c0-7.98-4.61-19.115-10.25-24.769l-28.323-28.322a14.253 14.253 0 0 0-3.861-2.738v-63.483c0-12.228 2.179-20.46 6.47-24.511 2.977-2.811 7.427-4.008 13.62-3.64.357.012.688-.006 1.026-.05 21.558 2.536 44.816 3.831 68.007 3.831 84.655 0 170.347-17.126 170.347-49.862-.006-9.232-6.777-17.587-20.128-24.78"></path></svg></svg>